<mxfile host="Electron" modified="2023-05-20T01:36:28.882Z" agent="Mozilla/5.0 (Windows NT 10.0; Win64; x64) AppleWebKit/537.36 (KHTML, like Gecko) draw.io/21.2.8 Chrome/112.0.5615.165 Electron/24.2.0 Safari/537.36" etag="tKjDFfSTVNdgLTwTETdD" version="21.2.8" type="device">
  <diagram id="C5RBs43oDa-KdzZeNtuy" name="Page-1">
    <mxGraphModel dx="4172" dy="1685" grid="1" gridSize="10" guides="1" tooltips="1" connect="1" arrows="1" fold="1" page="1" pageScale="1" pageWidth="827" pageHeight="1169" math="0" shadow="0">
      <root>
        <mxCell id="WIyWlLk6GJQsqaUBKTNV-0" />
        <mxCell id="WIyWlLk6GJQsqaUBKTNV-1" parent="WIyWlLk6GJQsqaUBKTNV-0" />
        <mxCell id="XXDRYSPHgyPvjFPOT_Ho-0" style="edgeStyle=orthogonalEdgeStyle;rounded=0;orthogonalLoop=1;jettySize=auto;html=1;entryX=0.5;entryY=0;entryDx=0;entryDy=0;" parent="WIyWlLk6GJQsqaUBKTNV-1" source="t22loXEwvGYVSL7xWseN-0" target="bxnFAB9PuRPpiLN_MdP1-23" edge="1">
          <mxGeometry relative="1" as="geometry" />
        </mxCell>
        <UserObject label="&lt;div style=&quot;&quot;&gt;&lt;font style=&quot;direction: ltr; letter-spacing: 0px; line-height: 120%; opacity: 1; font-size: 11.29px;&quot;&gt;start&lt;/font&gt;&lt;/div&gt;" Function="EN_DIO_Error_T DIO_init(uint8_t pinNumber, EN_DIO_PORT_T portNumber, EN_DIO_DIRECTION_T direction);" tags="Flowchart" id="t22loXEwvGYVSL7xWseN-0">
          <mxCell style="verticalAlign=middle;align=center;overflow=width;vsdxID=30;fillColor=#dae8fc;shape=stencil(tVLREoIgEPwaHnEQxsl3s/9gEpSJwDko7e+DsEkze2l627vdu5uFRaxyHe8FosR5sCcxqMZ3iO0Rpcp0ApQPCLEasUpaEC3Yi2lS3fOojOhsr3HDmObyMtsVcYqS29Qh5FEfklwrM5OXeUa/yjkcAwfr7TDpiyTfXvjkMR+Vw2A998qaBac5tAKHU1hq3i4oNwjRr9ofvayt/+Rk+yX/4iWA159KpXWKxJx/z0Bopfyw+g4=);strokeColor=#6c8ebf;spacingTop=-1;spacingBottom=-1;spacingLeft=-1;spacingRight=-1;points=[[0.5,1,0],[0.5,0,0],[0,0.5,0],[1,0.5,0]];labelBackgroundColor=none;rounded=1;html=1;whiteSpace=wrap;fontFamily=Calibri;" parent="WIyWlLk6GJQsqaUBKTNV-1" vertex="1">
            <mxGeometry x="-3181" y="-1089" width="101" height="38" as="geometry" />
          </mxCell>
        </UserObject>
        <mxCell id="XXDRYSPHgyPvjFPOT_Ho-5" value="yes" style="edgeStyle=orthogonalEdgeStyle;rounded=0;orthogonalLoop=1;jettySize=auto;html=1;exitX=0.5;exitY=1;exitDx=0;exitDy=0;exitPerimeter=0;" parent="WIyWlLk6GJQsqaUBKTNV-1" source="t22loXEwvGYVSL7xWseN-4" target="XXDRYSPHgyPvjFPOT_Ho-3" edge="1">
          <mxGeometry relative="1" as="geometry" />
        </mxCell>
        <mxCell id="ctEtxbWui_tcDRQQMcJz-9" value="no" style="edgeStyle=orthogonalEdgeStyle;rounded=0;orthogonalLoop=1;jettySize=auto;html=1;entryX=0.5;entryY=0;entryDx=0;entryDy=0;" parent="WIyWlLk6GJQsqaUBKTNV-1" source="t22loXEwvGYVSL7xWseN-4" target="ctEtxbWui_tcDRQQMcJz-10" edge="1">
          <mxGeometry relative="1" as="geometry">
            <mxPoint x="-3010" y="-460" as="targetPoint" />
            <Array as="points">
              <mxPoint x="-3010" y="-781" />
            </Array>
          </mxGeometry>
        </mxCell>
        <UserObject label="pwmPinCounter&lt;br&gt;less than&amp;nbsp;&lt;br&gt;PWM_PINS" Function="EN_DIO_Error_T DIO_init(uint8_t pinNumber, EN_DIO_PORT_T portNumber, EN_DIO_DIRECTION_T direction);" tags="Flowchart" id="t22loXEwvGYVSL7xWseN-4">
          <mxCell style="vsdxID=219;fillColor=#fff2cc;shape=stencil(UzV2Ls5ILEhVNTIoLinKz04tz0wpyVA1dlE1MsrMy0gtyiwBslSNXVWNndPyi1LTi/JL81Ig/IJEkEoQKze/DGRCBUSfAUiHkUElhGcK4bpBVOZk5iGpNEVVikeloQHZpsK0YlWLz1QgA+HFtMycHEgIIcujBwlQCBKcxq4A);strokeColor=#d6b656;spacingTop=-1;spacingBottom=-1;spacingLeft=-1;spacingRight=-1;points=[[0,0.5,0],[1,0.5,0],[0.5,0,0],[0.5,1,0]];labelBackgroundColor=none;rounded=1;html=1;whiteSpace=wrap;fontFamily=Calibri;" parent="WIyWlLk6GJQsqaUBKTNV-1" vertex="1">
            <mxGeometry x="-3198" y="-829" width="135" height="95" as="geometry" />
          </mxCell>
        </UserObject>
        <mxCell id="t22loXEwvGYVSL7xWseN-7" value="notes&lt;br&gt;define RegSize&lt;br&gt;&lt;br&gt;this function called from ISR to switch level of cycle&lt;br&gt;" style="shape=note;whiteSpace=wrap;html=1;backgroundOutline=1;darkOpacity=0.05;fillColor=#e1d5e7;strokeColor=#9673a6;" parent="WIyWlLk6GJQsqaUBKTNV-1" vertex="1">
          <mxGeometry x="-2660" y="-960" width="120" height="150" as="geometry" />
        </mxCell>
        <mxCell id="XXDRYSPHgyPvjFPOT_Ho-1" style="edgeStyle=orthogonalEdgeStyle;rounded=0;orthogonalLoop=1;jettySize=auto;html=1;entryX=0;entryY=0.5;entryDx=0;entryDy=0;entryPerimeter=0;" parent="WIyWlLk6GJQsqaUBKTNV-1" source="bxnFAB9PuRPpiLN_MdP1-23" target="ctEtxbWui_tcDRQQMcJz-0" edge="1">
          <mxGeometry relative="1" as="geometry">
            <mxPoint x="-2992.5" y="-949" as="targetPoint" />
          </mxGeometry>
        </mxCell>
        <mxCell id="bxnFAB9PuRPpiLN_MdP1-23" value="&lt;font style=&quot;font-size: 11.29px;&quot;&gt;init pwmPinCounter&lt;br&gt;equals zero&lt;br&gt;&lt;/font&gt;" style="rounded=0;whiteSpace=wrap;html=1;fontSize=16;fillColor=#d5e8d4;strokeColor=#82b366;" parent="WIyWlLk6GJQsqaUBKTNV-1" vertex="1">
          <mxGeometry x="-3210.5" y="-972" width="160" height="46" as="geometry" />
        </mxCell>
        <mxCell id="XXDRYSPHgyPvjFPOT_Ho-7" style="edgeStyle=orthogonalEdgeStyle;rounded=0;orthogonalLoop=1;jettySize=auto;html=1;" parent="WIyWlLk6GJQsqaUBKTNV-1" source="XXDRYSPHgyPvjFPOT_Ho-3" target="XXDRYSPHgyPvjFPOT_Ho-4" edge="1">
          <mxGeometry relative="1" as="geometry" />
        </mxCell>
        <mxCell id="XXDRYSPHgyPvjFPOT_Ho-3" value="&lt;font style=&quot;font-size: 11.29px;&quot;&gt;set Current pwm Pin low&lt;br&gt;&lt;/font&gt;" style="rounded=0;whiteSpace=wrap;html=1;fontSize=16;fillColor=#d5e8d4;strokeColor=#82b366;" parent="WIyWlLk6GJQsqaUBKTNV-1" vertex="1">
          <mxGeometry x="-3210.5" y="-671.5" width="160" height="46" as="geometry" />
        </mxCell>
        <mxCell id="XXDRYSPHgyPvjFPOT_Ho-8" style="edgeStyle=orthogonalEdgeStyle;rounded=0;orthogonalLoop=1;jettySize=auto;html=1;entryX=0.133;entryY=0.658;entryDx=0;entryDy=0;entryPerimeter=0;" parent="WIyWlLk6GJQsqaUBKTNV-1" source="XXDRYSPHgyPvjFPOT_Ho-4" target="t22loXEwvGYVSL7xWseN-4" edge="1">
          <mxGeometry relative="1" as="geometry">
            <mxPoint x="-3260" y="-741.5" as="targetPoint" />
            <Array as="points">
              <mxPoint x="-3270" y="-554.5" />
              <mxPoint x="-3270" y="-766.5" />
            </Array>
          </mxGeometry>
        </mxCell>
        <mxCell id="XXDRYSPHgyPvjFPOT_Ho-4" value="&lt;font style=&quot;font-size: 11.29px;&quot;&gt;pwmPinCounter++&lt;br&gt;&lt;/font&gt;" style="rounded=0;whiteSpace=wrap;html=1;fontSize=16;fillColor=#d5e8d4;strokeColor=#82b366;" parent="WIyWlLk6GJQsqaUBKTNV-1" vertex="1">
          <mxGeometry x="-3210.5" y="-577.5" width="160" height="46" as="geometry" />
        </mxCell>
        <mxCell id="t6v9Dm_Z3C3Y0JxIhz_D-0" value="&lt;font style=&quot;font-size: 12.5px;&quot;&gt;static void TIMER0_PWM_ExecutedFunction ( void )&lt;/font&gt;" style="text;html=1;strokeColor=none;fillColor=none;align=center;verticalAlign=middle;whiteSpace=wrap;rounded=0;" parent="WIyWlLk6GJQsqaUBKTNV-1" vertex="1">
          <mxGeometry x="-3010" y="-1089" width="328" height="30" as="geometry" />
        </mxCell>
        <mxCell id="ctEtxbWui_tcDRQQMcJz-7" value="yes" style="edgeStyle=orthogonalEdgeStyle;rounded=0;orthogonalLoop=1;jettySize=auto;html=1;exitX=0.5;exitY=1;exitDx=0;exitDy=0;exitPerimeter=0;entryX=0.5;entryY=0;entryDx=0;entryDy=0;entryPerimeter=0;" parent="WIyWlLk6GJQsqaUBKTNV-1" source="ctEtxbWui_tcDRQQMcJz-0" target="t22loXEwvGYVSL7xWseN-4" edge="1">
          <mxGeometry relative="1" as="geometry" />
        </mxCell>
        <mxCell id="ctEtxbWui_tcDRQQMcJz-8" value="no" style="edgeStyle=orthogonalEdgeStyle;rounded=0;orthogonalLoop=1;jettySize=auto;html=1;entryX=0.5;entryY=0;entryDx=0;entryDy=0;entryPerimeter=0;" parent="WIyWlLk6GJQsqaUBKTNV-1" source="ctEtxbWui_tcDRQQMcJz-0" target="ctEtxbWui_tcDRQQMcJz-2" edge="1">
          <mxGeometry relative="1" as="geometry">
            <Array as="points">
              <mxPoint x="-2782.5" y="-949" />
            </Array>
          </mxGeometry>
        </mxCell>
        <UserObject label="u8_g_on_off_state&lt;br&gt;equals zero" Function="EN_DIO_Error_T DIO_init(uint8_t pinNumber, EN_DIO_PORT_T portNumber, EN_DIO_DIRECTION_T direction);" tags="Flowchart" id="ctEtxbWui_tcDRQQMcJz-0">
          <mxCell style="vsdxID=219;fillColor=#fff2cc;shape=stencil(UzV2Ls5ILEhVNTIoLinKz04tz0wpyVA1dlE1MsrMy0gtyiwBslSNXVWNndPyi1LTi/JL81Ig/IJEkEoQKze/DGRCBUSfAUiHkUElhGcK4bpBVOZk5iGpNEVVikeloQHZpsK0YlWLz1QgA+HFtMycHEgIIcujBwlQCBKcxq4A);strokeColor=#d6b656;spacingTop=-1;spacingBottom=-1;spacingLeft=-1;spacingRight=-1;points=[[0,0.5,0],[1,0.5,0],[0.5,0,0],[0.5,1,0]];labelBackgroundColor=none;rounded=1;html=1;whiteSpace=wrap;fontFamily=Calibri;" parent="WIyWlLk6GJQsqaUBKTNV-1" vertex="1">
            <mxGeometry x="-2944.5" y="-996.5" width="135" height="95" as="geometry" />
          </mxCell>
        </UserObject>
        <mxCell id="ctEtxbWui_tcDRQQMcJz-1" value="yes" style="edgeStyle=orthogonalEdgeStyle;rounded=0;orthogonalLoop=1;jettySize=auto;html=1;exitX=0.5;exitY=1;exitDx=0;exitDy=0;exitPerimeter=0;" parent="WIyWlLk6GJQsqaUBKTNV-1" source="ctEtxbWui_tcDRQQMcJz-2" target="ctEtxbWui_tcDRQQMcJz-4" edge="1">
          <mxGeometry relative="1" as="geometry" />
        </mxCell>
        <mxCell id="ctEtxbWui_tcDRQQMcJz-17" value="no" style="edgeStyle=orthogonalEdgeStyle;rounded=0;orthogonalLoop=1;jettySize=auto;html=1;entryX=0.5;entryY=0;entryDx=0;entryDy=0;" parent="WIyWlLk6GJQsqaUBKTNV-1" source="ctEtxbWui_tcDRQQMcJz-2" target="ctEtxbWui_tcDRQQMcJz-15" edge="1">
          <mxGeometry relative="1" as="geometry">
            <mxPoint x="-2630" y="-540" as="targetPoint" />
            <Array as="points">
              <mxPoint x="-2680" y="-781" />
            </Array>
          </mxGeometry>
        </mxCell>
        <UserObject label="pwmPinCounter&lt;br&gt;less than&amp;nbsp;&lt;br&gt;PWM_PINS" Function="EN_DIO_Error_T DIO_init(uint8_t pinNumber, EN_DIO_PORT_T portNumber, EN_DIO_DIRECTION_T direction);" tags="Flowchart" id="ctEtxbWui_tcDRQQMcJz-2">
          <mxCell style="vsdxID=219;fillColor=#fff2cc;shape=stencil(UzV2Ls5ILEhVNTIoLinKz04tz0wpyVA1dlE1MsrMy0gtyiwBslSNXVWNndPyi1LTi/JL81Ig/IJEkEoQKze/DGRCBUSfAUiHkUElhGcK4bpBVOZk5iGpNEVVikeloQHZpsK0YlWLz1QgA+HFtMycHEgIIcujBwlQCBKcxq4A);strokeColor=#d6b656;spacingTop=-1;spacingBottom=-1;spacingLeft=-1;spacingRight=-1;points=[[0,0.5,0],[1,0.5,0],[0.5,0,0],[0.5,1,0]];labelBackgroundColor=none;rounded=1;html=1;whiteSpace=wrap;fontFamily=Calibri;" parent="WIyWlLk6GJQsqaUBKTNV-1" vertex="1">
            <mxGeometry x="-2850" y="-829" width="135" height="95" as="geometry" />
          </mxCell>
        </UserObject>
        <mxCell id="ctEtxbWui_tcDRQQMcJz-3" style="edgeStyle=orthogonalEdgeStyle;rounded=0;orthogonalLoop=1;jettySize=auto;html=1;" parent="WIyWlLk6GJQsqaUBKTNV-1" source="ctEtxbWui_tcDRQQMcJz-4" target="ctEtxbWui_tcDRQQMcJz-6" edge="1">
          <mxGeometry relative="1" as="geometry" />
        </mxCell>
        <mxCell id="ctEtxbWui_tcDRQQMcJz-4" value="&lt;font style=&quot;font-size: 11.29px;&quot;&gt;set current pwm pin High&lt;br&gt;&lt;/font&gt;" style="rounded=0;whiteSpace=wrap;html=1;fontSize=16;fillColor=#d5e8d4;strokeColor=#82b366;" parent="WIyWlLk6GJQsqaUBKTNV-1" vertex="1">
          <mxGeometry x="-2862.5" y="-671.5" width="160" height="46" as="geometry" />
        </mxCell>
        <mxCell id="ctEtxbWui_tcDRQQMcJz-5" style="edgeStyle=orthogonalEdgeStyle;rounded=0;orthogonalLoop=1;jettySize=auto;html=1;entryX=0.133;entryY=0.658;entryDx=0;entryDy=0;entryPerimeter=0;" parent="WIyWlLk6GJQsqaUBKTNV-1" source="ctEtxbWui_tcDRQQMcJz-6" target="ctEtxbWui_tcDRQQMcJz-2" edge="1">
          <mxGeometry relative="1" as="geometry">
            <mxPoint x="-2912" y="-741.5" as="targetPoint" />
            <Array as="points">
              <mxPoint x="-2922" y="-554.5" />
              <mxPoint x="-2922" y="-766.5" />
            </Array>
          </mxGeometry>
        </mxCell>
        <mxCell id="ctEtxbWui_tcDRQQMcJz-6" value="&lt;font style=&quot;font-size: 11.29px;&quot;&gt;pwmPinCounter++&lt;br&gt;&lt;/font&gt;" style="rounded=0;whiteSpace=wrap;html=1;fontSize=16;fillColor=#d5e8d4;strokeColor=#82b366;" parent="WIyWlLk6GJQsqaUBKTNV-1" vertex="1">
          <mxGeometry x="-2862.5" y="-577.5" width="160" height="46" as="geometry" />
        </mxCell>
        <mxCell id="ctEtxbWui_tcDRQQMcJz-12" style="edgeStyle=orthogonalEdgeStyle;rounded=0;orthogonalLoop=1;jettySize=auto;html=1;" parent="WIyWlLk6GJQsqaUBKTNV-1" source="ctEtxbWui_tcDRQQMcJz-10" target="ctEtxbWui_tcDRQQMcJz-11" edge="1">
          <mxGeometry relative="1" as="geometry" />
        </mxCell>
        <mxCell id="ctEtxbWui_tcDRQQMcJz-10" value="&lt;font style=&quot;font-size: 11.29px;&quot;&gt;set (TCNT0) Reg with&lt;br&gt;RegSize - u8_g_offTime&lt;br&gt;&lt;/font&gt;" style="rounded=0;whiteSpace=wrap;html=1;fontSize=16;fillColor=#d5e8d4;strokeColor=#82b366;" parent="WIyWlLk6GJQsqaUBKTNV-1" vertex="1">
          <mxGeometry x="-3090" y="-450" width="160" height="46" as="geometry" />
        </mxCell>
        <mxCell id="ctEtxbWui_tcDRQQMcJz-14" style="edgeStyle=orthogonalEdgeStyle;rounded=0;orthogonalLoop=1;jettySize=auto;html=1;entryX=0;entryY=0.5;entryDx=0;entryDy=0;entryPerimeter=0;" parent="WIyWlLk6GJQsqaUBKTNV-1" source="ctEtxbWui_tcDRQQMcJz-11" target="ctEtxbWui_tcDRQQMcJz-13" edge="1">
          <mxGeometry relative="1" as="geometry">
            <Array as="points">
              <mxPoint x="-3010" y="-231" />
            </Array>
          </mxGeometry>
        </mxCell>
        <mxCell id="ctEtxbWui_tcDRQQMcJz-11" value="&lt;font style=&quot;font-size: 11.29px;&quot;&gt;u8_on_off_state equal one&lt;br&gt;&lt;/font&gt;" style="rounded=0;whiteSpace=wrap;html=1;fontSize=16;fillColor=#d5e8d4;strokeColor=#82b366;" parent="WIyWlLk6GJQsqaUBKTNV-1" vertex="1">
          <mxGeometry x="-3090" y="-340" width="160" height="46" as="geometry" />
        </mxCell>
        <UserObject label="&lt;div style=&quot;&quot;&gt;&lt;font style=&quot;direction: ltr; letter-spacing: 0px; line-height: 120%; opacity: 1; font-size: 11.29px;&quot;&gt;end&lt;/font&gt;&lt;/div&gt;" Function="EN_DIO_Error_T DIO_init(uint8_t pinNumber, EN_DIO_PORT_T portNumber, EN_DIO_DIRECTION_T direction);" tags="Flowchart" id="ctEtxbWui_tcDRQQMcJz-13">
          <mxCell style="verticalAlign=middle;align=center;overflow=width;vsdxID=30;fillColor=#dae8fc;shape=stencil(tVLREoIgEPwaHnEQxsl3s/9gEpSJwDko7e+DsEkze2l627vdu5uFRaxyHe8FosR5sCcxqMZ3iO0Rpcp0ApQPCLEasUpaEC3Yi2lS3fOojOhsr3HDmObyMtsVcYqS29Qh5FEfklwrM5OXeUa/yjkcAwfr7TDpiyTfXvjkMR+Vw2A998qaBac5tAKHU1hq3i4oNwjRr9ofvayt/+Rk+yX/4iWA159KpXWKxJx/z0Bopfyw+g4=);strokeColor=#6c8ebf;spacingTop=-1;spacingBottom=-1;spacingLeft=-1;spacingRight=-1;points=[[0.5,1,0],[0.5,0,0],[0,0.5,0],[1,0.5,0]];labelBackgroundColor=none;rounded=1;html=1;whiteSpace=wrap;fontFamily=Calibri;" parent="WIyWlLk6GJQsqaUBKTNV-1" vertex="1">
            <mxGeometry x="-2894" y="-250" width="101" height="38" as="geometry" />
          </mxCell>
        </UserObject>
        <mxCell id="ctEtxbWui_tcDRQQMcJz-18" style="edgeStyle=orthogonalEdgeStyle;rounded=0;orthogonalLoop=1;jettySize=auto;html=1;" parent="WIyWlLk6GJQsqaUBKTNV-1" source="ctEtxbWui_tcDRQQMcJz-15" target="ctEtxbWui_tcDRQQMcJz-16" edge="1">
          <mxGeometry relative="1" as="geometry" />
        </mxCell>
        <mxCell id="ctEtxbWui_tcDRQQMcJz-15" value="&lt;font style=&quot;font-size: 11.29px;&quot;&gt;set (TCNT0) Reg with&lt;br&gt;RegSize - u8_g_onTime&lt;br&gt;&lt;/font&gt;" style="rounded=0;whiteSpace=wrap;html=1;fontSize=16;fillColor=#d5e8d4;strokeColor=#82b366;" parent="WIyWlLk6GJQsqaUBKTNV-1" vertex="1">
          <mxGeometry x="-2760" y="-450" width="160" height="46" as="geometry" />
        </mxCell>
        <mxCell id="ctEtxbWui_tcDRQQMcJz-19" style="edgeStyle=orthogonalEdgeStyle;rounded=0;orthogonalLoop=1;jettySize=auto;html=1;exitX=0.5;exitY=1;exitDx=0;exitDy=0;entryX=1;entryY=0.5;entryDx=0;entryDy=0;entryPerimeter=0;" parent="WIyWlLk6GJQsqaUBKTNV-1" source="ctEtxbWui_tcDRQQMcJz-16" target="ctEtxbWui_tcDRQQMcJz-13" edge="1">
          <mxGeometry relative="1" as="geometry" />
        </mxCell>
        <mxCell id="ctEtxbWui_tcDRQQMcJz-16" value="&lt;font style=&quot;font-size: 11.29px;&quot;&gt;u8_on_off_state equal zero&lt;br&gt;&lt;/font&gt;" style="rounded=0;whiteSpace=wrap;html=1;fontSize=16;fillColor=#d5e8d4;strokeColor=#82b366;" parent="WIyWlLk6GJQsqaUBKTNV-1" vertex="1">
          <mxGeometry x="-2760" y="-340" width="160" height="46" as="geometry" />
        </mxCell>
      </root>
    </mxGraphModel>
  </diagram>
</mxfile>
